<mxfile host="app.diagrams.net" modified="2022-02-06T10:13:29.914Z" agent="5.0 (Macintosh; Intel Mac OS X 10_15_7) AppleWebKit/605.1.15 (KHTML, like Gecko) Version/15.2 Safari/605.1.15" etag="jNTQChGkxDkLL8MN378i" version="16.5.3" type="github">
  <diagram id="GkwxvoKI0v0egCr2lqlU" name="Page-1">
    <mxGraphModel dx="946" dy="645" grid="1" gridSize="10" guides="1" tooltips="1" connect="1" arrows="1" fold="1" page="1" pageScale="1" pageWidth="850" pageHeight="1100" math="0" shadow="0">
      <root>
        <mxCell id="0" />
        <mxCell id="1" parent="0" />
        <mxCell id="RtcgU3C-zt8aPHX_ZTjs-4" style="rounded=0;orthogonalLoop=1;jettySize=auto;html=1;exitX=1;exitY=0.5;exitDx=0;exitDy=0;entryX=0;entryY=0.5;entryDx=0;entryDy=0;endArrow=none;endFill=0;fontColor=#000000;strokeColor=#000000;fontSize=14;fontFamily=Georgia;" parent="1" source="RtcgU3C-zt8aPHX_ZTjs-1" target="RtcgU3C-zt8aPHX_ZTjs-2" edge="1">
          <mxGeometry relative="1" as="geometry">
            <mxPoint x="810.5" y="282.5" as="targetPoint" />
          </mxGeometry>
        </mxCell>
        <mxCell id="4VMU7p_WYgPRxcq0oTT4-2" style="rounded=0;orthogonalLoop=1;jettySize=auto;html=1;exitX=1;exitY=0.5;exitDx=0;exitDy=0;entryX=0;entryY=0.5;entryDx=0;entryDy=0;endArrow=none;endFill=0;fontFamily=Georgia;" parent="1" source="RtcgU3C-zt8aPHX_ZTjs-1" target="4VMU7p_WYgPRxcq0oTT4-1" edge="1">
          <mxGeometry relative="1" as="geometry">
            <mxPoint x="810.5" y="362.5" as="targetPoint" />
          </mxGeometry>
        </mxCell>
        <mxCell id="RtcgU3C-zt8aPHX_ZTjs-1" value="s2" style="ellipse;whiteSpace=wrap;html=1;aspect=fixed;fontColor=#000000;strokeColor=#000000;fontSize=14;fontFamily=Georgia;" parent="1" vertex="1">
          <mxGeometry x="732.5" y="307.5" width="30" height="30" as="geometry" />
        </mxCell>
        <mxCell id="RtcgU3C-zt8aPHX_ZTjs-10" style="edgeStyle=none;rounded=0;orthogonalLoop=1;jettySize=auto;html=1;exitX=1;exitY=0.5;exitDx=0;exitDy=0;entryX=0;entryY=0.5;entryDx=0;entryDy=0;endArrow=none;endFill=0;fontColor=#000000;fontSize=14;fontFamily=Georgia;" parent="1" source="RtcgU3C-zt8aPHX_ZTjs-2" target="RtcgU3C-zt8aPHX_ZTjs-6" edge="1">
          <mxGeometry relative="1" as="geometry" />
        </mxCell>
        <mxCell id="RtcgU3C-zt8aPHX_ZTjs-11" style="edgeStyle=none;rounded=0;orthogonalLoop=1;jettySize=auto;html=1;exitX=1;exitY=0.5;exitDx=0;exitDy=0;entryX=0;entryY=0.5;entryDx=0;entryDy=0;endArrow=none;endFill=0;strokeColor=#FF0000;fontColor=#000000;fontSize=14;fontFamily=Georgia;" parent="1" source="RtcgU3C-zt8aPHX_ZTjs-2" target="RtcgU3C-zt8aPHX_ZTjs-7" edge="1">
          <mxGeometry relative="1" as="geometry" />
        </mxCell>
        <mxCell id="RtcgU3C-zt8aPHX_ZTjs-2" value="s3" style="ellipse;whiteSpace=wrap;html=1;aspect=fixed;fontColor=#000000;strokeColor=#000000;fontSize=14;fontFamily=Georgia;" parent="1" vertex="1">
          <mxGeometry x="818.5" y="267.5" width="30" height="30" as="geometry" />
        </mxCell>
        <mxCell id="RtcgU3C-zt8aPHX_ZTjs-13" style="edgeStyle=none;rounded=0;orthogonalLoop=1;jettySize=auto;html=1;exitX=1;exitY=0.5;exitDx=0;exitDy=0;entryX=0;entryY=0.5;entryDx=0;entryDy=0;endArrow=none;endFill=0;fontColor=#000000;fontSize=14;fontFamily=Georgia;" parent="1" source="4VMU7p_WYgPRxcq0oTT4-1" target="RtcgU3C-zt8aPHX_ZTjs-9" edge="1">
          <mxGeometry relative="1" as="geometry">
            <mxPoint x="896.5" y="357.5" as="sourcePoint" />
          </mxGeometry>
        </mxCell>
        <mxCell id="RtcgU3C-zt8aPHX_ZTjs-48" style="edgeStyle=none;rounded=0;orthogonalLoop=1;jettySize=auto;html=1;exitX=1;exitY=0.5;exitDx=0;exitDy=0;entryX=0;entryY=0.5;entryDx=0;entryDy=0;fontSize=14;endArrow=none;endFill=0;fontColor=#000000;fontFamily=Georgia;" parent="1" source="RtcgU3C-zt8aPHX_ZTjs-6" target="CVOTNyJvkZIV5OlrlDnd-2" edge="1">
          <mxGeometry relative="1" as="geometry">
            <mxPoint x="1209.5" y="292.5" as="targetPoint" />
          </mxGeometry>
        </mxCell>
        <mxCell id="RtcgU3C-zt8aPHX_ZTjs-6" value="s5" style="ellipse;whiteSpace=wrap;html=1;aspect=fixed;fontColor=#000000;fontSize=14;fontFamily=Georgia;" parent="1" vertex="1">
          <mxGeometry x="906.5" y="244.5" width="30" height="30" as="geometry" />
        </mxCell>
        <mxCell id="RtcgU3C-zt8aPHX_ZTjs-29" style="edgeStyle=none;rounded=0;orthogonalLoop=1;jettySize=auto;html=1;exitX=1;exitY=0.5;exitDx=0;exitDy=0;entryX=0;entryY=0.5;entryDx=0;entryDy=0;fontSize=14;endArrow=none;endFill=0;fontColor=#FF0000;fontFamily=Georgia;strokeColor=#FF0000;" parent="1" source="RtcgU3C-zt8aPHX_ZTjs-7" target="RtcgU3C-zt8aPHX_ZTjs-28" edge="1">
          <mxGeometry relative="1" as="geometry" />
        </mxCell>
        <mxCell id="RtcgU3C-zt8aPHX_ZTjs-7" value="s6" style="ellipse;whiteSpace=wrap;html=1;aspect=fixed;fontColor=#FF0000;fontSize=14;fontFamily=Georgia;strokeColor=#FF0000;" parent="1" vertex="1">
          <mxGeometry x="906.5" y="279.5" width="30" height="30" as="geometry" />
        </mxCell>
        <mxCell id="RtcgU3C-zt8aPHX_ZTjs-45" style="edgeStyle=none;rounded=0;orthogonalLoop=1;jettySize=auto;html=1;exitX=1;exitY=0.5;exitDx=0;exitDy=0;entryX=0;entryY=0.5;entryDx=0;entryDy=0;fontSize=14;endArrow=none;endFill=0;fontColor=#000000;fontFamily=Georgia;" parent="1" source="RtcgU3C-zt8aPHX_ZTjs-9" target="CVOTNyJvkZIV5OlrlDnd-3" edge="1">
          <mxGeometry relative="1" as="geometry" />
        </mxCell>
        <mxCell id="RtcgU3C-zt8aPHX_ZTjs-9" value="s7" style="ellipse;whiteSpace=wrap;html=1;aspect=fixed;fontColor=#000000;fontSize=14;fontFamily=Georgia;" parent="1" vertex="1">
          <mxGeometry x="906.5" y="370.5" width="30" height="30" as="geometry" />
        </mxCell>
        <mxCell id="RtcgU3C-zt8aPHX_ZTjs-14" value="&lt;font style=&quot;font-size: 14px&quot;&gt;see&lt;/font&gt;" style="text;html=1;align=center;verticalAlign=middle;resizable=0;points=[];autosize=1;strokeColor=none;fillColor=none;fontColor=#000000;fontSize=14;fontFamily=Georgia;" parent="1" vertex="1">
          <mxGeometry x="763.5" y="277.5" width="40" height="20" as="geometry" />
        </mxCell>
        <mxCell id="RtcgU3C-zt8aPHX_ZTjs-16" value="these" style="text;html=1;align=center;verticalAlign=middle;resizable=0;points=[];autosize=1;strokeColor=none;fillColor=none;fontSize=14;fontColor=#000000;fontFamily=Georgia;" parent="1" vertex="1">
          <mxGeometry x="846.5" y="248.5" width="50" height="20" as="geometry" />
        </mxCell>
        <mxCell id="RtcgU3C-zt8aPHX_ZTjs-17" value="the" style="text;html=1;align=center;verticalAlign=middle;resizable=0;points=[];autosize=1;strokeColor=none;fillColor=none;fontSize=14;fontColor=#FF0000;fontFamily=Georgia;" parent="1" vertex="1">
          <mxGeometry x="853.5" y="286.5" width="40" height="20" as="geometry" />
        </mxCell>
        <mxCell id="RtcgU3C-zt8aPHX_ZTjs-21" style="edgeStyle=none;rounded=0;orthogonalLoop=1;jettySize=auto;html=1;exitX=1;exitY=0.5;exitDx=0;exitDy=0;entryX=0;entryY=0.5;entryDx=0;entryDy=0;fontSize=14;endArrow=none;endFill=0;fontColor=#000000;strokeColor=#000000;fontFamily=Georgia;" parent="1" source="RtcgU3C-zt8aPHX_ZTjs-20" target="RtcgU3C-zt8aPHX_ZTjs-1" edge="1">
          <mxGeometry relative="1" as="geometry" />
        </mxCell>
        <mxCell id="RtcgU3C-zt8aPHX_ZTjs-20" value="&lt;font style=&quot;font-size: 14px;&quot;&gt;s1&lt;/font&gt;" style="ellipse;whiteSpace=wrap;html=1;aspect=fixed;fontColor=#000000;strokeColor=#000000;fontSize=14;fontFamily=Georgia;" parent="1" vertex="1">
          <mxGeometry x="655.5" y="307.5" width="30" height="30" as="geometry" />
        </mxCell>
        <mxCell id="RtcgU3C-zt8aPHX_ZTjs-22" value="&lt;font style=&quot;font-size: 14px&quot;&gt;&amp;lt;s&amp;gt;&lt;/font&gt;" style="text;html=1;align=center;verticalAlign=middle;resizable=0;points=[];autosize=1;strokeColor=none;fillColor=none;fontColor=#000000;fontSize=14;fontFamily=Georgia;" parent="1" vertex="1">
          <mxGeometry x="687.5" y="302.5" width="40" height="20" as="geometry" />
        </mxCell>
        <mxCell id="RtcgU3C-zt8aPHX_ZTjs-52" style="edgeStyle=none;rounded=0;orthogonalLoop=1;jettySize=auto;html=1;exitX=1;exitY=0.5;exitDx=0;exitDy=0;fontSize=14;endArrow=none;endFill=0;fontColor=#FF0000;fontFamily=Georgia;entryX=0;entryY=0.5;entryDx=0;entryDy=0;strokeColor=#FF0000;" parent="1" source="RtcgU3C-zt8aPHX_ZTjs-28" target="54BcYv2EsDL3iLWHWI-8-8" edge="1">
          <mxGeometry relative="1" as="geometry">
            <mxPoint x="1115" y="320" as="targetPoint" />
          </mxGeometry>
        </mxCell>
        <mxCell id="RtcgU3C-zt8aPHX_ZTjs-28" value="s8" style="ellipse;whiteSpace=wrap;html=1;aspect=fixed;fontColor=#FF0000;fontSize=14;fontFamily=Georgia;strokeColor=#FF0000;" parent="1" vertex="1">
          <mxGeometry x="994.5" y="279.5" width="30" height="30" as="geometry" />
        </mxCell>
        <mxCell id="RtcgU3C-zt8aPHX_ZTjs-38" value="beds" style="text;html=1;align=center;verticalAlign=middle;resizable=0;points=[];autosize=1;strokeColor=none;fillColor=none;fontSize=14;fontColor=#000000;fontFamily=Georgia;" parent="1" vertex="1">
          <mxGeometry x="941.5" y="364.5" width="40" height="20" as="geometry" />
        </mxCell>
        <mxCell id="RtcgU3C-zt8aPHX_ZTjs-39" value="&lt;span&gt;b&lt;/span&gt;ed" style="text;html=1;align=center;verticalAlign=middle;resizable=0;points=[];autosize=1;strokeColor=none;fillColor=none;fontSize=14;fontColor=#000000;fontFamily=Georgia;" parent="1" vertex="1">
          <mxGeometry x="940.5" y="239.5" width="40" height="20" as="geometry" />
        </mxCell>
        <mxCell id="RtcgU3C-zt8aPHX_ZTjs-46" value="&lt;span&gt;b&lt;/span&gt;ed" style="text;html=1;align=center;verticalAlign=middle;resizable=0;points=[];autosize=1;strokeColor=none;fillColor=none;fontSize=14;fontColor=#FF0000;fontFamily=Georgia;" parent="1" vertex="1">
          <mxGeometry x="941.5" y="275.5" width="40" height="20" as="geometry" />
        </mxCell>
        <mxCell id="RtcgU3C-zt8aPHX_ZTjs-105" value="s6" style="ellipse;whiteSpace=wrap;html=1;aspect=fixed;fontSize=14;fontColor=#000000;fontFamily=Georgia;" parent="1" vertex="1">
          <mxGeometry x="1416" y="305" width="30" height="30" as="geometry" />
        </mxCell>
        <mxCell id="RtcgU3C-zt8aPHX_ZTjs-119" value="&lt;font color=&quot;#000000&quot; style=&quot;font-size: 20px&quot;&gt;&lt;font style=&quot;font-size: 20px&quot;&gt;Utterance 1&amp;nbsp;(Evaluated)&lt;/font&gt;&lt;br&gt;&lt;/font&gt;" style="text;html=1;align=center;verticalAlign=middle;resizable=0;points=[];autosize=1;strokeColor=none;fillColor=none;fontSize=30;fontFamily=Georgia;fontColor=#FF0000;" parent="1" vertex="1">
          <mxGeometry x="723" y="110" width="220" height="40" as="geometry" />
        </mxCell>
        <mxCell id="RtcgU3C-zt8aPHX_ZTjs-120" value="&lt;font color=&quot;#000000&quot; style=&quot;font-size: 20px&quot;&gt;&lt;font style=&quot;font-size: 20px&quot;&gt;Lattice Rescoring using Cross-Utterance n-gram History Clustering&lt;/font&gt;&lt;br&gt;&lt;/font&gt;" style="text;html=1;align=center;verticalAlign=middle;resizable=0;points=[];autosize=1;strokeColor=none;fillColor=none;fontSize=30;fontFamily=Georgia;fontColor=#FF0000;" parent="1" vertex="1">
          <mxGeometry x="731" y="170" width="610" height="40" as="geometry" />
        </mxCell>
        <mxCell id="4VMU7p_WYgPRxcq0oTT4-12" style="edgeStyle=none;rounded=0;orthogonalLoop=1;jettySize=auto;html=1;exitX=1;exitY=0.5;exitDx=0;exitDy=0;entryX=0;entryY=0.5;entryDx=0;entryDy=0;endArrow=none;endFill=0;fontFamily=Georgia;" parent="1" source="PLGYQZCd30LQGUTYlzt7-8" target="RtcgU3C-zt8aPHX_ZTjs-105" edge="1">
          <mxGeometry relative="1" as="geometry" />
        </mxCell>
        <mxCell id="PLGYQZCd30LQGUTYlzt7-8" value="s5" style="ellipse;whiteSpace=wrap;html=1;aspect=fixed;fontSize=14;fontColor=#000000;fontFamily=Georgia;" parent="1" vertex="1">
          <mxGeometry x="1341" y="305" width="30" height="30" as="geometry" />
        </mxCell>
        <mxCell id="PLGYQZCd30LQGUTYlzt7-9" style="edgeStyle=none;rounded=0;orthogonalLoop=1;jettySize=auto;html=1;exitX=1;exitY=0.5;exitDx=0;exitDy=0;entryX=0;entryY=0.5;entryDx=0;entryDy=0;fontSize=14;endArrow=none;endFill=0;fontColor=#000000;fontFamily=Georgia;" parent="1" source="PLGYQZCd30LQGUTYlzt7-10" target="PLGYQZCd30LQGUTYlzt7-8" edge="1">
          <mxGeometry relative="1" as="geometry" />
        </mxCell>
        <mxCell id="PLGYQZCd30LQGUTYlzt7-10" value="s4" style="ellipse;whiteSpace=wrap;html=1;aspect=fixed;fontSize=14;fontColor=#000000;fontFamily=Georgia;" parent="1" vertex="1">
          <mxGeometry x="1271" y="305" width="30" height="30" as="geometry" />
        </mxCell>
        <mxCell id="PLGYQZCd30LQGUTYlzt7-11" value="&lt;font&gt;a&lt;/font&gt;" style="text;html=1;align=center;verticalAlign=middle;resizable=0;points=[];autosize=1;strokeColor=none;fillColor=none;fontSize=14;fontColor=#000000;fontFamily=Georgia;" parent="1" vertex="1">
          <mxGeometry x="1246" y="282" width="20" height="20" as="geometry" />
        </mxCell>
        <mxCell id="PLGYQZCd30LQGUTYlzt7-12" style="edgeStyle=none;rounded=0;orthogonalLoop=1;jettySize=auto;html=1;exitX=1;exitY=0.5;exitDx=0;exitDy=0;entryX=0;entryY=0.5;entryDx=0;entryDy=0;fontFamily=Georgia;fontSize=14;endArrow=none;endFill=0;fontColor=#000000;" parent="1" source="PLGYQZCd30LQGUTYlzt7-13" target="PLGYQZCd30LQGUTYlzt7-10" edge="1">
          <mxGeometry relative="1" as="geometry" />
        </mxCell>
        <mxCell id="PLGYQZCd30LQGUTYlzt7-13" value="s3" style="ellipse;whiteSpace=wrap;html=1;aspect=fixed;fontSize=14;fontColor=#000000;fontFamily=Georgia;" parent="1" vertex="1">
          <mxGeometry x="1195" y="345" width="30" height="30" as="geometry" />
        </mxCell>
        <mxCell id="PLGYQZCd30LQGUTYlzt7-14" value="&lt;font&gt;have&lt;/font&gt;" style="text;html=1;align=center;verticalAlign=middle;resizable=0;points=[];autosize=1;strokeColor=none;fillColor=none;fontSize=14;fontColor=#000000;fontFamily=Georgia;" parent="1" vertex="1">
          <mxGeometry x="1139" y="275" width="50" height="20" as="geometry" />
        </mxCell>
        <mxCell id="54BcYv2EsDL3iLWHWI-8-1" style="edgeStyle=none;rounded=0;orthogonalLoop=1;jettySize=auto;html=1;exitX=1;exitY=0.5;exitDx=0;exitDy=0;entryX=0;entryY=0.5;entryDx=0;entryDy=0;endArrow=none;endFill=0;fontSize=14;fontColor=#000000;fontFamily=Georgia;" parent="1" source="54BcYv2EsDL3iLWHWI-8-6" target="PLGYQZCd30LQGUTYlzt7-10" edge="1">
          <mxGeometry relative="1" as="geometry" />
        </mxCell>
        <mxCell id="54BcYv2EsDL3iLWHWI-8-6" value="s2" style="ellipse;whiteSpace=wrap;html=1;aspect=fixed;fontSize=14;fontColor=#000000;fontFamily=Georgia;" parent="1" vertex="1">
          <mxGeometry x="1195" y="265" width="30" height="30" as="geometry" />
        </mxCell>
        <mxCell id="54BcYv2EsDL3iLWHWI-8-7" style="edgeStyle=none;rounded=0;orthogonalLoop=1;jettySize=auto;html=1;exitX=1;exitY=0.5;exitDx=0;exitDy=0;entryX=0;entryY=0.5;entryDx=0;entryDy=0;fontSize=14;endArrow=none;endFill=0;fontColor=#000000;fontFamily=Georgia;" parent="1" source="54BcYv2EsDL3iLWHWI-8-8" target="54BcYv2EsDL3iLWHWI-8-6" edge="1">
          <mxGeometry relative="1" as="geometry" />
        </mxCell>
        <mxCell id="54BcYv2EsDL3iLWHWI-8-8" value="s1" style="ellipse;whiteSpace=wrap;html=1;aspect=fixed;fontSize=14;fontColor=#FF0000;fontFamily=Georgia;strokeColor=#FF0000;" parent="1" vertex="1">
          <mxGeometry x="1109" y="305" width="30" height="30" as="geometry" />
        </mxCell>
        <mxCell id="54BcYv2EsDL3iLWHWI-8-29" value="" style="endArrow=none;html=1;rounded=0;fontFamily=Georgia;fontSize=14;fontColor=#808080;strokeColor=#000000;exitX=0;exitY=0.5;exitDx=0;exitDy=0;entryX=1;entryY=0.5;entryDx=0;entryDy=0;" parent="1" source="PLGYQZCd30LQGUTYlzt7-13" target="54BcYv2EsDL3iLWHWI-8-8" edge="1">
          <mxGeometry width="50" height="50" relative="1" as="geometry">
            <mxPoint x="1499" y="365" as="sourcePoint" />
            <mxPoint x="1419" y="420" as="targetPoint" />
          </mxGeometry>
        </mxCell>
        <mxCell id="4VMU7p_WYgPRxcq0oTT4-3" style="edgeStyle=none;rounded=0;orthogonalLoop=1;jettySize=auto;html=1;exitX=1;exitY=0.5;exitDx=0;exitDy=0;entryX=0;entryY=0.5;entryDx=0;entryDy=0;endArrow=none;endFill=0;fontFamily=Georgia;strokeColor=#FF0000;" parent="1" source="4VMU7p_WYgPRxcq0oTT4-1" target="CVOTNyJvkZIV5OlrlDnd-4" edge="1">
          <mxGeometry relative="1" as="geometry" />
        </mxCell>
        <mxCell id="4VMU7p_WYgPRxcq0oTT4-1" value="s4" style="ellipse;whiteSpace=wrap;html=1;aspect=fixed;fontColor=#000000;strokeColor=#000000;fontSize=14;fontFamily=Georgia;" parent="1" vertex="1">
          <mxGeometry x="818.5" y="347.5" width="30" height="30" as="geometry" />
        </mxCell>
        <mxCell id="4VMU7p_WYgPRxcq0oTT4-4" value="&lt;font style=&quot;font-size: 14px&quot;&gt;sees&lt;/font&gt;" style="text;html=1;align=center;verticalAlign=middle;resizable=0;points=[];autosize=1;strokeColor=none;fillColor=none;fontColor=#000000;fontSize=14;fontFamily=Georgia;" parent="1" vertex="1">
          <mxGeometry x="762.5" y="347.5" width="40" height="20" as="geometry" />
        </mxCell>
        <mxCell id="4VMU7p_WYgPRxcq0oTT4-5" value="the" style="text;html=1;align=center;verticalAlign=middle;resizable=0;points=[];autosize=1;strokeColor=none;fillColor=none;fontSize=14;fontColor=#FF0000;fontFamily=Georgia;" parent="1" vertex="1">
          <mxGeometry x="853.5" y="335.5" width="40" height="20" as="geometry" />
        </mxCell>
        <mxCell id="4VMU7p_WYgPRxcq0oTT4-7" value="there" style="text;html=1;align=center;verticalAlign=middle;resizable=0;points=[];autosize=1;strokeColor=none;fillColor=none;fontSize=14;fontColor=#000000;fontFamily=Georgia;" parent="1" vertex="1">
          <mxGeometry x="848.5" y="373.5" width="50" height="20" as="geometry" />
        </mxCell>
        <mxCell id="4VMU7p_WYgPRxcq0oTT4-9" value="&lt;font&gt;had&lt;/font&gt;" style="text;html=1;align=center;verticalAlign=middle;resizable=0;points=[];autosize=1;strokeColor=none;fillColor=none;fontSize=14;fontColor=#000000;fontFamily=Georgia;" parent="1" vertex="1">
          <mxGeometry x="1146" y="342" width="40" height="20" as="geometry" />
        </mxCell>
        <mxCell id="4VMU7p_WYgPRxcq0oTT4-10" value="&lt;font&gt;a&lt;/font&gt;" style="text;html=1;align=center;verticalAlign=middle;resizable=0;points=[];autosize=1;strokeColor=none;fillColor=none;fontSize=14;fontColor=#000000;fontFamily=Georgia;" parent="1" vertex="1">
          <mxGeometry x="1245" y="335" width="20" height="20" as="geometry" />
        </mxCell>
        <mxCell id="4VMU7p_WYgPRxcq0oTT4-11" value="&lt;font&gt;rest&lt;/font&gt;" style="text;html=1;align=center;verticalAlign=middle;resizable=0;points=[];autosize=1;strokeColor=none;fillColor=none;fontSize=14;fontColor=#000000;fontFamily=Georgia;" parent="1" vertex="1">
          <mxGeometry x="1301" y="300" width="40" height="20" as="geometry" />
        </mxCell>
        <mxCell id="4VMU7p_WYgPRxcq0oTT4-13" value="&lt;font&gt;&amp;lt;/s&amp;gt;&lt;/font&gt;" style="text;html=1;align=center;verticalAlign=middle;resizable=0;points=[];autosize=1;strokeColor=none;fillColor=none;fontSize=14;fontColor=#000000;fontFamily=Georgia;" parent="1" vertex="1">
          <mxGeometry x="1370" y="299" width="50" height="20" as="geometry" />
        </mxCell>
        <mxCell id="CVOTNyJvkZIV5OlrlDnd-1" value="&lt;font color=&quot;#000000&quot; style=&quot;font-size: 20px&quot;&gt;&lt;font style=&quot;font-size: 20px&quot;&gt;Utterance 2 (Evaluating)&lt;/font&gt;&lt;br&gt;&lt;/font&gt;" style="text;html=1;align=center;verticalAlign=middle;resizable=0;points=[];autosize=1;strokeColor=none;fillColor=none;fontSize=30;fontFamily=Georgia;fontColor=#FF0000;" parent="1" vertex="1">
          <mxGeometry x="1139" y="110" width="230" height="40" as="geometry" />
        </mxCell>
        <mxCell id="CVOTNyJvkZIV5OlrlDnd-12" style="edgeStyle=none;rounded=0;orthogonalLoop=1;jettySize=auto;html=1;exitX=1;exitY=0.5;exitDx=0;exitDy=0;fontColor=#000000;endArrow=none;endFill=0;strokeColor=#000000;" parent="1" source="CVOTNyJvkZIV5OlrlDnd-2" edge="1">
          <mxGeometry relative="1" as="geometry">
            <mxPoint x="1110" y="320" as="targetPoint" />
          </mxGeometry>
        </mxCell>
        <mxCell id="CVOTNyJvkZIV5OlrlDnd-2" value="s8" style="ellipse;whiteSpace=wrap;html=1;aspect=fixed;fontColor=#000000;fontSize=14;fontFamily=Georgia;strokeColor=#000000;" parent="1" vertex="1">
          <mxGeometry x="994.5" y="244.5" width="30" height="30" as="geometry" />
        </mxCell>
        <mxCell id="CVOTNyJvkZIV5OlrlDnd-10" style="edgeStyle=none;rounded=0;orthogonalLoop=1;jettySize=auto;html=1;exitX=1;exitY=0.5;exitDx=0;exitDy=0;entryX=0;entryY=0.5;entryDx=0;entryDy=0;fontColor=#000000;endArrow=none;endFill=0;strokeColor=#000000;" parent="1" source="CVOTNyJvkZIV5OlrlDnd-3" target="54BcYv2EsDL3iLWHWI-8-8" edge="1">
          <mxGeometry relative="1" as="geometry" />
        </mxCell>
        <mxCell id="CVOTNyJvkZIV5OlrlDnd-3" value="s8" style="ellipse;whiteSpace=wrap;html=1;aspect=fixed;fontColor=#000000;fontSize=14;fontFamily=Georgia;strokeColor=#000000;" parent="1" vertex="1">
          <mxGeometry x="994.5" y="370.5" width="30" height="30" as="geometry" />
        </mxCell>
        <mxCell id="CVOTNyJvkZIV5OlrlDnd-6" style="edgeStyle=orthogonalEdgeStyle;rounded=0;orthogonalLoop=1;jettySize=auto;html=1;exitX=1;exitY=0.5;exitDx=0;exitDy=0;entryX=0;entryY=0.5;entryDx=0;entryDy=0;fontColor=#FF0000;strokeColor=#FF0000;endArrow=none;endFill=0;" parent="1" source="CVOTNyJvkZIV5OlrlDnd-4" target="CVOTNyJvkZIV5OlrlDnd-5" edge="1">
          <mxGeometry relative="1" as="geometry" />
        </mxCell>
        <mxCell id="CVOTNyJvkZIV5OlrlDnd-4" value="s6" style="ellipse;whiteSpace=wrap;html=1;aspect=fixed;fontColor=#FF0000;fontSize=14;fontFamily=Georgia;strokeColor=#FF0000;" parent="1" vertex="1">
          <mxGeometry x="906.5" y="334.5" width="30" height="30" as="geometry" />
        </mxCell>
        <mxCell id="CVOTNyJvkZIV5OlrlDnd-8" style="rounded=0;orthogonalLoop=1;jettySize=auto;html=1;exitX=1;exitY=0.5;exitDx=0;exitDy=0;entryX=0;entryY=0.5;entryDx=0;entryDy=0;fontColor=#FF0000;endArrow=none;endFill=0;strokeColor=#FF0000;" parent="1" source="CVOTNyJvkZIV5OlrlDnd-5" target="54BcYv2EsDL3iLWHWI-8-8" edge="1">
          <mxGeometry relative="1" as="geometry" />
        </mxCell>
        <mxCell id="CVOTNyJvkZIV5OlrlDnd-5" value="s8" style="ellipse;whiteSpace=wrap;html=1;aspect=fixed;fontColor=#FF0000;fontSize=14;fontFamily=Georgia;strokeColor=#FF0000;" parent="1" vertex="1">
          <mxGeometry x="994.5" y="334.5" width="30" height="30" as="geometry" />
        </mxCell>
        <mxCell id="CVOTNyJvkZIV5OlrlDnd-7" value="&lt;span&gt;b&lt;/span&gt;ed" style="text;html=1;align=center;verticalAlign=middle;resizable=0;points=[];autosize=1;strokeColor=none;fillColor=none;fontSize=14;fontColor=#FF0000;fontFamily=Georgia;" parent="1" vertex="1">
          <mxGeometry x="941.5" y="329.5" width="40" height="20" as="geometry" />
        </mxCell>
        <mxCell id="CVOTNyJvkZIV5OlrlDnd-9" value="&amp;lt;/s&amp;gt; \ &amp;lt;s&amp;gt;" style="text;html=1;align=center;verticalAlign=middle;resizable=0;points=[];autosize=1;strokeColor=none;fillColor=none;fontSize=14;fontColor=#FF0000;fontFamily=Georgia;" parent="1" vertex="1">
          <mxGeometry x="1002" y="318" width="80" height="20" as="geometry" />
        </mxCell>
        <mxCell id="CVOTNyJvkZIV5OlrlDnd-11" value="&amp;lt;/s&amp;gt; \ &amp;lt;s&amp;gt;" style="text;html=1;align=center;verticalAlign=middle;resizable=0;points=[];autosize=1;strokeColor=none;fillColor=none;fontSize=14;fontColor=#000000;fontFamily=Georgia;" parent="1" vertex="1">
          <mxGeometry x="1030" y="370.5" width="80" height="20" as="geometry" />
        </mxCell>
        <mxCell id="CVOTNyJvkZIV5OlrlDnd-13" value="&amp;lt;/s&amp;gt; \ &amp;lt;s&amp;gt;" style="text;html=1;align=center;verticalAlign=middle;resizable=0;points=[];autosize=1;strokeColor=none;fillColor=none;fontSize=14;fontColor=#000000;fontFamily=Georgia;" parent="1" vertex="1">
          <mxGeometry x="1030" y="249.5" width="80" height="20" as="geometry" />
        </mxCell>
        <mxCell id="RtcgU3C-zt8aPHX_ZTjs-54" value="&amp;lt;/s&amp;gt; \ &amp;lt;s&amp;gt;" style="text;html=1;align=center;verticalAlign=middle;resizable=0;points=[];autosize=1;strokeColor=none;fillColor=none;fontSize=14;fontColor=#FF0000;fontFamily=Georgia;" parent="1" vertex="1">
          <mxGeometry x="1002" y="302.5" width="80" height="20" as="geometry" />
        </mxCell>
      </root>
    </mxGraphModel>
  </diagram>
</mxfile>
